# xmcd
#
# Track frame offsets:
#	150
#	13822
#	25242
#	38580
#	53174
#	64930
#	80629
#	92227
#	106376
#	118551
#	132626
#	147649
#
# Disc length: 2148 seconds
#
# Revision: 1
# Processed by: cddbd v1.5.2PL0 Copyright (c) Steve Scherf et al.
# Submitted via: audiograbber 1.83.01
#
DISCID=ac08620c
DTITLE=Georges Hamel - Je chante à sa mémoire
DYEAR=2004
DGENRE=Country
TTITLE0=Je Chante à Sa Mémoire(Denis Champoux-Denis Champoux)
TTITLE1=J'ai Le Coeur En Prison(Denis Champoux-Denis Champoux)
TTITLE2=On En Fait Une Chanson(Denis Champoux-Denis Champoux)
TTITLE3=Aurons-Nous Le Temps(Denis Champoux-Denis Champoux)
TTITLE4=Quand On A Plus Rien à Prouver(Denis Champoux-Denis Champoux)
TTITLE5=Le Soleil Après La Pluie(Denis Champoux-Denis Champoux)
TTITLE6=Où Sont Les Amoureux(Denis Champoux-Denis Champoux)
TTITLE7=Dire Merci(Denis Champoux-Denis Champoux)
TTITLE8=Le Bonheur D'être Des Grands Parents(Denis Champoux-Denis Champoux)
TTITLE9=Écoutez L'enfant Qui Chante(Denis Champoux-Denis Champoux)
TTITLE10=Je Crois Simplement Rêver(Georges Hamel-Georges Hamel)
TTITLE11=I Raise My Glass To John(Denis Champoux-Denis Champoux)
EXTD=YEAR: 2004
EXTT0=
EXTT1=
EXTT2=
EXTT3=
EXTT4=
EXTT5=
EXTT6=
EXTT7=
EXTT8=
EXTT9=
EXTT10=
EXTT11=
PLAYORDER=
